<svg width="197" height="30" viewBox="0 0 197 30" fill="none" xmlns="http://www.w3.org/2000/svg">
<g clip-path="url(#clip0_63_199)">
<path d="M20.52 8.64L16.04 23H14.12L10.62 12.35C10.54 12.1367 10.47 11.88 10.41 11.58C10.3367 11.8867 10.2667 12.1433 10.2 12.35L6.66 23H4.75L0.27 8.64H2.05C2.23667 8.64 2.39333 8.68667 2.52 8.78C2.64667 8.86667 2.73 8.98667 2.77 9.14L5.6 18.75C5.65333 18.9367 5.7 19.14 5.74 19.36C5.78667 19.58 5.83333 19.81 5.88 20.05C5.92667 19.81 5.97333 19.58 6.02 19.36C6.07333 19.14 6.13333 18.9367 6.2 18.75L9.44 9.14C9.48 9.00667 9.56333 8.89 9.69 8.79C9.82333 8.69 9.98 8.64 10.16 8.64H10.77C10.9567 8.64 11.11 8.68667 11.23 8.78C11.35 8.87333 11.4367 8.99333 11.49 9.14L14.72 18.75C14.84 19.1167 14.9467 19.5333 15.04 20C15.12 19.54 15.2067 19.1233 15.3 18.75L18.14 9.14C18.1733 9.00667 18.2567 8.89 18.39 8.79C18.5233 8.69 18.68 8.64 18.86 8.64H20.52ZM23.9841 14.13C24.4107 13.6967 24.8807 13.3467 25.3941 13.08C25.9141 12.8133 26.5107 12.68 27.1841 12.68C27.7441 12.68 28.2341 12.7733 28.6541 12.96C29.0807 13.1467 29.4374 13.41 29.7241 13.75C30.0107 14.0833 30.2274 14.4867 30.3741 14.96C30.5207 15.4333 30.5941 15.9567 30.5941 16.53V23H28.6341V16.53C28.6341 15.8033 28.4674 15.24 28.1341 14.84C27.8007 14.4333 27.2907 14.23 26.6041 14.23C26.1041 14.23 25.6341 14.35 25.1941 14.59C24.7607 14.8233 24.3574 15.1433 23.9841 15.55V23H22.0341V8.24H23.9841V14.13ZM41.8516 12.84L36.2116 25.95C36.1516 26.0967 36.0716 26.21 35.9716 26.29C35.8716 26.37 35.7249 26.41 35.5316 26.41H34.0816L35.9416 22.36L31.7716 12.84H33.4716C33.6382 12.84 33.7682 12.88 33.8616 12.96C33.9549 13.04 34.0216 13.13 34.0616 13.23L36.6416 19.33C36.6949 19.4833 36.7449 19.64 36.7916 19.8C36.8449 19.9533 36.8882 20.1067 36.9216 20.26C36.9682 20.1 37.0182 19.9433 37.0716 19.79C37.1249 19.63 37.1816 19.4733 37.2416 19.32L39.7316 13.23C39.7782 13.1167 39.8516 13.0233 39.9516 12.95C40.0516 12.8767 40.1649 12.84 40.2916 12.84H41.8516ZM50.453 10.37V15.18H56.213V16.91H50.453V23H48.313V8.64H57.213V10.37H50.453ZM60.2022 14.79C60.5289 14.1233 60.9222 13.6 61.3822 13.22C61.8422 12.84 62.3955 12.65 63.0422 12.65C63.2622 12.65 63.4689 12.6767 63.6622 12.73C63.8622 12.7767 64.0355 12.85 64.1822 12.95L64.0522 14.42C64.0055 14.6 63.8955 14.69 63.7222 14.69C63.6289 14.69 63.4889 14.6733 63.3022 14.64C63.1155 14.6 62.9155 14.58 62.7022 14.58C62.3889 14.58 62.1122 14.6267 61.8722 14.72C61.6322 14.8067 61.4155 14.94 61.2222 15.12C61.0355 15.2933 60.8689 15.51 60.7222 15.77C60.5755 16.0233 60.4389 16.3133 60.3122 16.64V23H58.3622V12.84H59.4822C59.6955 12.84 59.8389 12.88 59.9122 12.96C59.9922 13.0333 60.0489 13.1667 60.0822 13.36L60.2022 14.79ZM67.7264 12.84V23H65.7764V12.84H67.7264ZM68.0964 9.7C68.0964 9.88 68.0597 10.0533 67.9864 10.22C67.9131 10.38 67.8131 10.5233 67.6864 10.65C67.5664 10.77 67.4231 10.8667 67.2564 10.94C67.0897 11.0067 66.9164 11.04 66.7364 11.04C66.5564 11.04 66.3864 11.0067 66.2264 10.94C66.0664 10.8667 65.9231 10.77 65.7964 10.65C65.6764 10.5233 65.5797 10.38 65.5064 10.22C65.4397 10.0533 65.4064 9.88 65.4064 9.7C65.4064 9.51333 65.4397 9.34 65.5064 9.18C65.5797 9.01333 65.6764 8.87 65.7964 8.75C65.9231 8.62333 66.0664 8.52667 66.2264 8.46C66.3864 8.38667 66.5564 8.35 66.7364 8.35C66.9164 8.35 67.0897 8.38667 67.2564 8.46C67.4231 8.52667 67.5664 8.62333 67.6864 8.75C67.8131 8.87 67.9131 9.01333 67.9864 9.18C68.0597 9.34 68.0964 9.51333 68.0964 9.7ZM76.5397 14.59C76.4864 14.6767 76.4297 14.74 76.3697 14.78C76.3097 14.8133 76.233 14.83 76.1397 14.83C76.033 14.83 75.913 14.7933 75.7797 14.72C75.653 14.6467 75.4964 14.5667 75.3097 14.48C75.1297 14.3933 74.9164 14.3133 74.6697 14.24C74.423 14.1667 74.1297 14.13 73.7897 14.13C73.5097 14.13 73.253 14.1667 73.0197 14.24C72.793 14.3067 72.5997 14.4033 72.4397 14.53C72.2797 14.65 72.1564 14.7967 72.0697 14.97C71.983 15.1367 71.9397 15.3167 71.9397 15.51C71.9397 15.7633 72.013 15.9733 72.1597 16.14C72.313 16.3067 72.5097 16.45 72.7497 16.57C72.9964 16.69 73.273 16.8 73.5797 16.9C73.893 16.9933 74.2097 17.0933 74.5297 17.2C74.8564 17.3067 75.173 17.43 75.4797 17.57C75.793 17.7033 76.0697 17.8733 76.3097 18.08C76.5564 18.28 76.753 18.5233 76.8997 18.81C77.053 19.0967 77.1297 19.4467 77.1297 19.86C77.1297 20.3333 77.043 20.7733 76.8697 21.18C76.703 21.58 76.453 21.9267 76.1197 22.22C75.793 22.5133 75.3864 22.7433 74.8997 22.91C74.413 23.0767 73.8564 23.16 73.2297 23.16C72.5297 23.16 71.883 23.0433 71.2897 22.81C70.6964 22.5767 70.1997 22.28 69.7997 21.92L70.2597 21.17C70.313 21.0767 70.3797 21.0067 70.4597 20.96C70.5397 20.9067 70.6464 20.88 70.7797 20.88C70.9064 20.88 71.0364 20.9267 71.1697 21.02C71.303 21.1133 71.463 21.2167 71.6497 21.33C71.8364 21.4367 72.063 21.5367 72.3297 21.63C72.5964 21.7167 72.9297 21.76 73.3297 21.76C73.663 21.76 73.953 21.72 74.1997 21.64C74.4464 21.5533 74.6497 21.44 74.8097 21.3C74.9764 21.1533 75.0997 20.9867 75.1797 20.8C75.2597 20.6133 75.2997 20.4167 75.2997 20.21C75.2997 19.9433 75.223 19.7233 75.0697 19.55C74.923 19.37 74.7264 19.2167 74.4797 19.09C74.2397 18.9633 73.963 18.8533 73.6497 18.76C73.3364 18.6667 73.0164 18.5667 72.6897 18.46C72.363 18.3533 72.043 18.23 71.7297 18.09C71.4164 17.95 71.1364 17.7733 70.8897 17.56C70.6497 17.3467 70.453 17.0867 70.2997 16.78C70.153 16.4733 70.0797 16.1 70.0797 15.66C70.0797 15.2667 70.1597 14.89 70.3197 14.53C70.4864 14.17 70.723 13.8533 71.0297 13.58C71.343 13.3067 71.7264 13.09 72.1797 12.93C72.6397 12.7633 73.163 12.68 73.7497 12.68C74.423 12.68 75.0297 12.7867 75.5697 13C76.1164 13.2133 76.583 13.5067 76.9697 13.88L76.5397 14.59ZM81.1911 20.5C81.5111 20.92 81.8544 21.2133 82.2211 21.38C82.5944 21.5467 83.0111 21.63 83.4711 21.63C84.3644 21.63 85.0544 21.31 85.5411 20.67C86.0344 20.0233 86.2811 19.0833 86.2811 17.85C86.2811 17.2033 86.2244 16.6533 86.1111 16.2C86.0044 15.74 85.8444 15.3667 85.6311 15.08C85.4244 14.7867 85.1678 14.5733 84.8611 14.44C84.5544 14.3 84.2078 14.23 83.8211 14.23C83.2544 14.23 82.7611 14.3567 82.3411 14.61C81.9278 14.8633 81.5444 15.2233 81.1911 15.69V20.5ZM81.0911 14.36C81.3044 14.1067 81.5311 13.8767 81.7711 13.67C82.0178 13.4567 82.2811 13.2767 82.5611 13.13C82.8411 12.9767 83.1378 12.86 83.4511 12.78C83.7711 12.6933 84.1111 12.65 84.4711 12.65C85.0511 12.65 85.5744 12.7633 86.0411 12.99C86.5144 13.2167 86.9178 13.55 87.2511 13.99C87.5844 14.43 87.8411 14.9733 88.0211 15.62C88.2078 16.2667 88.3011 17.01 88.3011 17.85C88.3011 18.6033 88.1978 19.3033 87.9911 19.95C87.7911 20.59 87.5011 21.1467 87.1211 21.62C86.7478 22.0933 86.2878 22.4667 85.7411 22.74C85.2011 23.0067 84.5911 23.14 83.9111 23.14C83.3044 23.14 82.7844 23.04 82.3511 22.84C81.9178 22.64 81.5311 22.36 81.1911 22V26.41H79.2411V12.84H80.4111C80.6844 12.84 80.8544 12.97 80.9211 13.23L81.0911 14.36ZM97.2211 16.79C97.2211 16.4033 97.1644 16.0467 97.0511 15.72C96.9444 15.3933 96.7844 15.11 96.5711 14.87C96.3578 14.63 96.0978 14.4433 95.7911 14.31C95.4844 14.1767 95.1311 14.11 94.7311 14.11C93.9111 14.11 93.2644 14.3467 92.7911 14.82C92.3244 15.2933 92.0278 15.95 91.9011 16.79H97.2211ZM98.8311 21.55C98.5911 21.83 98.3144 22.0733 98.0011 22.28C97.6878 22.48 97.3544 22.6433 97.0011 22.77C96.6478 22.8967 96.2811 22.99 95.9011 23.05C95.5278 23.11 95.1578 23.14 94.7911 23.14C94.0911 23.14 93.4411 23.0233 92.8411 22.79C92.2478 22.55 91.7311 22.2033 91.2911 21.75C90.8578 21.29 90.5178 20.7233 90.2711 20.05C90.0311 19.37 89.9111 18.59 89.9111 17.71C89.9111 17.0033 90.0211 16.3467 90.2411 15.74C90.4611 15.1267 90.7744 14.5933 91.1811 14.14C91.5944 13.6867 92.0978 13.33 92.6911 13.07C93.2844 12.81 93.9511 12.68 94.6911 12.68C95.3111 12.68 95.8811 12.7833 96.4011 12.99C96.9278 13.19 97.3811 13.4833 97.7611 13.87C98.1411 14.2567 98.4378 14.7333 98.6511 15.3C98.8711 15.8667 98.9811 16.5133 98.9811 17.24C98.9811 17.54 98.9478 17.7433 98.8811 17.85C98.8144 17.95 98.6911 18 98.5111 18H91.8511C91.8711 18.6067 91.9578 19.1367 92.1111 19.59C92.2644 20.0367 92.4744 20.41 92.7411 20.71C93.0144 21.01 93.3378 21.2333 93.7111 21.38C94.0844 21.5267 94.5011 21.6 94.9611 21.6C95.3944 21.6 95.7678 21.55 96.0811 21.45C96.4011 21.35 96.6744 21.2433 96.9011 21.13C97.1344 21.01 97.3278 20.9 97.4811 20.8C97.6411 20.7 97.7811 20.65 97.9011 20.65C98.0611 20.65 98.1844 20.71 98.2711 20.83L98.8311 21.55ZM107.067 14.59C107.014 14.6767 106.957 14.74 106.897 14.78C106.837 14.8133 106.76 14.83 106.667 14.83C106.56 14.83 106.44 14.7933 106.307 14.72C106.18 14.6467 106.024 14.5667 105.837 14.48C105.657 14.3933 105.444 14.3133 105.197 14.24C104.95 14.1667 104.657 14.13 104.317 14.13C104.037 14.13 103.78 14.1667 103.547 14.24C103.32 14.3067 103.127 14.4033 102.967 14.53C102.807 14.65 102.684 14.7967 102.597 14.97C102.51 15.1367 102.467 15.3167 102.467 15.51C102.467 15.7633 102.54 15.9733 102.687 16.14C102.84 16.3067 103.037 16.45 103.277 16.57C103.524 16.69 103.8 16.8 104.107 16.9C104.42 16.9933 104.737 17.0933 105.057 17.2C105.384 17.3067 105.7 17.43 106.007 17.57C106.32 17.7033 106.597 17.8733 106.837 18.08C107.084 18.28 107.28 18.5233 107.427 18.81C107.58 19.0967 107.657 19.4467 107.657 19.86C107.657 20.3333 107.57 20.7733 107.397 21.18C107.23 21.58 106.98 21.9267 106.647 22.22C106.32 22.5133 105.914 22.7433 105.427 22.91C104.94 23.0767 104.384 23.16 103.757 23.16C103.057 23.16 102.41 23.0433 101.817 22.81C101.224 22.5767 100.727 22.28 100.327 21.92L100.787 21.17C100.84 21.0767 100.907 21.0067 100.987 20.96C101.067 20.9067 101.174 20.88 101.307 20.88C101.434 20.88 101.564 20.9267 101.697 21.02C101.83 21.1133 101.99 21.2167 102.177 21.33C102.364 21.4367 102.59 21.5367 102.857 21.63C103.124 21.7167 103.457 21.76 103.857 21.76C104.19 21.76 104.48 21.72 104.727 21.64C104.974 21.5533 105.177 21.44 105.337 21.3C105.504 21.1533 105.627 20.9867 105.707 20.8C105.787 20.6133 105.827 20.4167 105.827 20.21C105.827 19.9433 105.75 19.7233 105.597 19.55C105.45 19.37 105.254 19.2167 105.007 19.09C104.767 18.9633 104.49 18.8533 104.177 18.76C103.864 18.6667 103.544 18.5667 103.217 18.46C102.89 18.3533 102.57 18.23 102.257 18.09C101.944 17.95 101.664 17.7733 101.417 17.56C101.177 17.3467 100.98 17.0867 100.827 16.78C100.68 16.4733 100.607 16.1 100.607 15.66C100.607 15.2667 100.687 14.89 100.847 14.53C101.014 14.17 101.25 13.8533 101.557 13.58C101.87 13.3067 102.254 13.09 102.707 12.93C103.167 12.7633 103.69 12.68 104.277 12.68C104.95 12.68 105.557 12.7867 106.097 13C106.644 13.2133 107.11 13.5067 107.497 13.88L107.067 14.59Z" fill="white"/>
<rect x="124" y="14" width="73" height="2" fill="white"/>
</g>
<defs>
<clipPath id="clip0_63_199">
<rect width="197" height="30" fill="white"/>
</clipPath>
</defs>
</svg>
